<?xml version="1.0" encoding="UTF-8" standalone="no"?>
<!-- Created with Inkscape (http://www.inkscape.org/) -->

<svg
   xmlns:dc="http://purl.org/dc/elements/1.1/"
   xmlns:cc="http://creativecommons.org/ns#"
   xmlns:rdf="http://www.w3.org/1999/02/22-rdf-syntax-ns#"
   xmlns:svg="http://www.w3.org/2000/svg"
   xmlns="http://www.w3.org/2000/svg"
   xmlns:sodipodi="http://sodipodi.sourceforge.net/DTD/sodipodi-0.dtd"
   xmlns:inkscape="http://www.inkscape.org/namespaces/inkscape"
   version="1.1"
   id="svg4485"
   xml:space="preserve"
   width="475.63501"
   height="235.85201"
   viewBox="0 0 475.63501 235.852"
   sodipodi:docname="PCM master logo with colour code.svg"
   inkscape:version="0.92.1 r15371"><metadata
     id="metadata4491"><rdf:RDF><cc:Work
         rdf:about=""><dc:format>image/svg+xml</dc:format><dc:type
           rdf:resource="http://purl.org/dc/dcmitype/StillImage" /><dc:title></dc:title></cc:Work></rdf:RDF></metadata><defs
     id="defs4489" /><sodipodi:namedview
     pagecolor="#ffffff"
     bordercolor="#666666"
     borderopacity="1"
     objecttolerance="10"
     gridtolerance="10"
     guidetolerance="10"
     inkscape:pageopacity="0"
     inkscape:pageshadow="2"
     inkscape:window-width="1920"
     inkscape:window-height="1027"
     id="namedview4487"
     showgrid="false"
     inkscape:zoom="1.2445"
     inkscape:cx="312.25333"
     inkscape:cy="190.43793"
     inkscape:window-x="1358"
     inkscape:window-y="-8"
     inkscape:window-maximized="1"
     inkscape:current-layer="g4493" /><g
     id="g4493"
     inkscape:groupmode="layer"
     inkscape:label="PCM master logo with colour code"
     transform="matrix(1.3333333,0,0,-1.3333333,0,235.85198)"><g
       id="g4495"
       transform="translate(166.718,176.88908)"><path
         d="m 0,0 h -29.776 -29.187 -0.148 v -176.889 h 0.148 29.187 H 0 29.334 v 30.218 14.004 H -0.147 v -14.741 h -29.482 v 117.926 h 29.482 v -14.74 H 29.334 V -28.745 0 Z"
         style="fill:#0f145b;fill-opacity:1;fill-rule:nonzero;stroke:none"
         id="path4497"
         inkscape:connector-curvature="0" /></g><path
       d="M 58.963,117.92598 H 29.481 v 29.482 h 29.482 z m 0.442,58.963 H 29.924 0 v -28.744 -29.482 V 89.181984 -1.5747071e-5 H 29.482 V 88.444984 h 29.923 29.040002 v 30.217996 29.482 28.744 z"
       style="fill:#0f145b;fill-opacity:1;fill-rule:nonzero;stroke:none"
       id="path4499"
       inkscape:connector-curvature="0" /><g
       id="g4501"
       transform="translate(327.0974,176.88908)"><path
         d="m 0,0 h -29.482 -29.481 -29.482 -29.334 v -28.745 -148.144 h 29.482 v 147.407 h 29.481 v -147.407 h 29.482 V -29.482 H 0.147 V -176.889 H 29.629 V -28.745 0 Z"
         style="fill:#0f145b;fill-opacity:1;fill-rule:nonzero;stroke:none"
         id="path4503"
         inkscape:connector-curvature="0" /></g><g
       id="g4505"
       transform="translate(29.4815,-1.5747071e-5)"><path
         d="M 0,0 H -14.741 L -7.37,7.37 0,14.741 Z"
         style="fill:#00aeef;fill-opacity:1;fill-rule:nonzero;stroke:none"
         id="path4507"
         inkscape:connector-curvature="0" /></g><g
       id="g4509"
       transform="translate(88.444502,88.444584)"><path
         d="M 0,0 H -14.741 L -7.37,7.37 0,14.741 Z"
         style="fill:#00aeef;fill-opacity:1;fill-rule:nonzero;stroke:none"
         id="path4511"
         inkscape:connector-curvature="0" /></g><g
       id="g4513"
       transform="translate(196.0521,-1.5747071e-5)"><path
         d="M 0,0 H -14.741 L -7.37,7.37 0,14.741 Z"
         style="fill:#00aeef;fill-opacity:1;fill-rule:nonzero;stroke:none"
         id="path4515"
         inkscape:connector-curvature="0" /></g><g
       id="g4517"
       transform="translate(196.0521,132.66688)"><path
         d="M 0,0 H -14.741 L -7.37,7.37 0,14.741 Z"
         style="fill:#00aeef;fill-opacity:1;fill-rule:nonzero;stroke:none"
         id="path4519"
         inkscape:connector-curvature="0" /></g><g
       id="g4521"
       transform="translate(238.8003,-1.5747071e-5)"><path
         d="M 0,0 H -14.888 L -7.444,7.37 0,14.741 Z"
         style="fill:#00aeef;fill-opacity:1;fill-rule:nonzero;stroke:none"
         id="path4523"
         inkscape:connector-curvature="0" /></g><g
       id="g4525"
       transform="translate(297.7633,-1.5747071e-5)"><path
         d="M 0,0 H -14.888 L -7.444,7.37 0,14.741 Z"
         style="fill:#00aeef;fill-opacity:1;fill-rule:nonzero;stroke:none"
         id="path4527"
         inkscape:connector-curvature="0" /></g><g
       id="g4529"
       transform="translate(356.7263,-1.5747071e-5)"><path
         d="M 0,0 H -14.888 L -7.444,7.37 0,14.741 Z"
         style="fill:#00aeef;fill-opacity:1;fill-rule:nonzero;stroke:none"
         id="path4531"
         inkscape:connector-curvature="0" /></g></g></svg>